<?xml version="1.0" encoding="UTF-8"?>
<svg width="246px" height="32px" viewBox="0 0 246 32" version="1.1" xmlns="http://www.w3.org/2000/svg" xmlns:xlink="http://www.w3.org/1999/xlink">
    <!-- Generator: Sketch 57.1 (83088) - https://sketch.com -->
    <title>Sprite CC</title>
    <desc>Created with Sketch.</desc>
    <g id="Sprite-CC" stroke="none" stroke-width="1" fill="none" fill-rule="evenodd">
        <g id="full-credit-card-regular" fill="#505050" fill-rule="nonzero">
            <path d="M37.5762153,1.77635684e-15 L3.42378472,1.77635684e-15 C1.53038194,1.77635684e-15 0,1.53571429 0,3.42857143 L0,28.5714286 C0,30.4642857 1.53038194,32 3.42378472,32 L37.5762153,32 C39.4696181,32 41,30.4642857 41,28.5714286 L41,3.42857143 C41,1.53571429 39.4696181,1.77635684e-15 37.5762153,1.77635684e-15 Z M3.85086806,3.42857143 L37.1491319,3.42857143 C37.3840278,3.42857143 37.5762153,3.62142857 37.5762153,3.85714286 L37.5762153,6.85714286 L3.42378472,6.85714286 L3.42378472,3.85714286 C3.42378472,3.62142857 3.61597222,3.42857143 3.85086806,3.42857143 Z M37.1491319,28.5714286 L3.85086806,28.5714286 C3.61597222,28.5714286 3.42378472,28.3785714 3.42378472,28.1428571 L3.42378472,16 L37.5762153,16 L37.5762153,28.1428571 C37.5762153,28.3785714 37.3840278,28.5714286 37.1491319,28.5714286 Z M13.6666667,21.4285714 L13.6666667,24.2857143 C13.6666667,24.7571429 13.2822917,25.1428571 12.8125,25.1428571 L7.6875,25.1428571 C7.21770833,25.1428571 6.83333333,24.7571429 6.83333333,24.2857143 L6.83333333,21.4285714 C6.83333333,20.9571429 7.21770833,20.5714286 7.6875,20.5714286 L12.8125,20.5714286 C13.2822917,20.5714286 13.6666667,20.9571429 13.6666667,21.4285714 Z M27.3333333,21.4285714 L27.3333333,24.2857143 C27.3333333,24.7571429 26.9489583,25.1428571 26.4791667,25.1428571 L16.7986111,25.1428571 C16.3288194,25.1428571 15.9444444,24.7571429 15.9444444,24.2857143 L15.9444444,21.4285714 C15.9444444,20.9571429 16.3288194,20.5714286 16.7986111,20.5714286 L26.4791667,20.5714286 C26.9489583,20.5714286 27.3333333,20.9571429 27.3333333,21.4285714 Z" id="credit-card-regular"></path>
        </g>
        <g id="full-cc-amex-brands-copy" transform="translate(41.000000, 0.000000)" fill="#505050" fill-rule="nonzero">
            <path d="M23.1429811,9.7 C23.1429811,8.52857143 22.1398577,8.38571429 21.1936491,8.38571429 L18.4119382,8.36428571 L18.4119382,13.3142857 L19.5786917,13.3142857 L19.5786917,11.5214286 L20.8592747,11.5214286 C22.1683151,11.5214286 21.8908555,12.2571429 21.9121985,13.3142857 L23.0931806,13.3142857 L23.0931806,12.35 C23.0931806,11.6928571 22.9864654,11.2714286 22.3106021,11.0357143 C22.837064,10.8214286 23.1500954,10.2714286 23.1429811,9.7 L23.1429811,9.7 Z M21.0513621,10.5071429 L19.5786917,10.5071429 L19.5786917,9.41428571 L21.0727052,9.41428571 C21.435537,9.41428571 21.8339407,9.48571429 21.8339407,9.94285714 C21.8339407,10.4142857 21.4568801,10.5071429 21.0513621,10.5071429 L21.0513621,10.5071429 Z M19.8632657,16.9 L16.1140031,16.9 L14.6199896,18.5285714 L13.1615478,16.9 L8.43050495,16.9 L8.4233906,21.85 L13.0761756,21.85 L14.5915322,20.2071429 L16.0428596,21.85 L18.3336804,21.85 L18.3407947,20.1857143 C19.6854069,20.1857143 21.8481694,20.5142857 21.8481694,18.5214286 C21.8481694,17.2857143 20.9731043,16.9 19.8632657,16.9 L19.8632657,16.9 Z M12.4785702,20.8071429 L9.59014402,20.8071429 L9.59014402,19.8214286 L12.1726531,19.8214286 L12.1726531,18.8142857 L9.59014402,18.8142857 L9.59014402,17.9214286 L12.556828,17.9214286 L13.8302967,19.3642857 L12.4785702,20.8071429 Z M17.1598126,21.3928571 L15.359882,19.3857143 L17.1598126,17.4285714 L17.1598126,21.3928571 Z M19.849037,19.1785714 L18.3407947,19.1785714 L18.3407947,17.9214286 L19.87038,17.9214286 C20.2687836,17.9214286 20.5960437,18.0857143 20.5960437,18.5214286 C20.5960437,18.9785714 20.2687836,19.1785714 19.849037,19.1785714 L19.849037,19.1785714 Z M17.6009023,9.41428571 L17.6009023,8.37142857 L13.652438,8.37142857 L13.652438,13.3214286 L17.6009023,13.3214286 L17.6009023,12.3 L14.8334201,12.3 L14.8334201,11.3142857 L17.5226445,11.3142857 L17.5226445,10.3071429 L14.8334201,10.3071429 L14.8334201,9.41428571 L17.6009023,9.41428571 Z M41.0620177,16.0149838 L41.024745,16.0149838 L41.0620177,16.0149838 Z M27.1483602,18.2357143 C27.1483602,17.0642857 26.1452369,16.9 25.2203713,16.9 L22.4173174,16.9 L22.410203,21.85 L23.5911851,21.85 L23.5982995,20.0428571 L24.8504251,20.0428571 C25.6330036,20.0428571 25.903349,20.1857143 25.903349,21.0285714 L25.8962346,21.85 L27.0772167,21.85 L27.0843311,20.8642857 C27.0843311,20.2285714 26.9562728,19.7857143 26.3017526,19.55 C26.8495575,19.3285714 27.1412459,18.7785714 27.1483602,18.2357143 L27.1483602,18.2357143 Z M25.07097,19.0357143 L23.5982995,19.0357143 L23.5982995,17.9214286 L25.092313,17.9214286 C25.4551449,17.9214286 25.8535485,17.9928571 25.8535485,18.45 C25.8535485,18.9428571 25.4693736,19.0357143 25.07097,19.0357143 L25.07097,19.0357143 Z M12.7773729,13.3214286 L12.7773729,8.37142857 L10.8138123,8.37142857 L9.41228527,11.7285714 L7.86847128,8.37142857 L5.94048239,8.37142857 L5.94048239,13.0642857 L3.94134999,8.37142857 L2.1983342,8.37142857 L0.085372202,13.3214286 L1.35884088,13.3214286 L1.81415929,12.2285714 L4.2686101,12.2285714 L4.72392851,13.3214286 L7.12857887,13.3214286 L7.12857887,9.45 L8.8360229,13.3214286 L9.87471803,13.3214286 L11.5821621,9.45 L11.5821621,13.3214286 L12.7773729,13.3214286 Z M2.23390595,11.2 L3.03071317,9.22857143 L3.84886344,11.2 L2.23390595,11.2 Z M36.1978136,22.55 L36.1978136,22.2285714 C35.4294638,22.6285714 35.920354,22.55 25.0496269,22.55 C25.0496269,20.75 25.0567413,20.8428571 25.0496269,20.75 C24.928683,20.7428571 24.8219677,20.7428571 24.380878,20.7428571 C24.380878,22.0214286 24.3737637,21.2285714 24.3737637,22.55 L21.556481,22.55 C21.556481,21.6857143 21.5635953,21.4571429 21.5635953,20.4642857 C20.8521603,20.8928571 19.9415235,20.9214286 19.1233732,20.9071429 C19.1233732,21.9571429 19.1162589,21.5 19.1162589,22.55 L15.6373417,22.55 C15.2745098,22.1428571 15.4452542,22.3285714 14.5417317,21.3071429 C14.3140725,21.5571429 13.6310949,22.3 13.3963214,22.55 L7.56255423,22.55 L7.56255423,15.9571429 L13.4745792,15.9571429 C13.8302967,16.3571429 13.673781,16.1785714 14.5773035,17.1857143 C14.8049627,16.9357143 15.4452542,16.2285714 15.6942565,15.9571429 L19.8205796,15.9571429 C20.5177859,15.9571429 21.1011626,16.0928571 21.5493666,16.3571429 L21.5493666,15.9571429 C25.4124588,15.9571429 26.1238938,15.8571429 26.9349297,16.3214286 L26.9349297,15.9571429 L32.4983516,15.9571429 L32.4983516,16.3285714 C33.3093875,15.8357143 33.8927642,15.9571429 37.1155648,15.9571429 L37.1155648,16.3142857 C37.8483429,15.8928571 38.2965469,15.9428571 40.9786569,15.9571429 L40.9786569,3.42857143 C40.9786569,1.53571429 39.4490717,-7.10542736e-15 37.5637689,-7.10542736e-15 L3.41488808,-7.10542736e-15 C1.52958529,-7.10542736e-15 0,1.53571429 0,3.42857143 L0,11.2714286 C0.668748915,9.70714286 1.40152698,7.98571429 1.64341489,7.42142857 L4.4678119,7.42142857 C4.77372896,8.14285714 4.58164151,7.68571429 5.10810342,8.92857143 L5.10810342,7.42142857 L8.38070449,7.42142857 C8.58702065,7.86428571 9.17039736,9.13571429 9.36959917,9.56428571 C9.78223148,8.59285714 10.0881485,7.85714286 10.2660073,7.42142857 L17.593788,7.42142857 C17.593788,7.41428571 18.4119382,7.42142857 18.4190526,7.42142857 C21.5280236,7.43571429 22.2323443,7.36428571 23.0006941,7.8 L23.0006941,7.42142857 L25.8393198,7.42142857 L25.8393198,8.08571429 C26.3800104,7.65 27.1127885,7.42142857 28.0234253,7.42142857 L29.9869859,7.42142857 C29.9869859,7.45714286 30.1221586,7.44285714 30.150616,7.44285714 L32.4556655,7.44285714 C32.7544682,8.14285714 32.6406386,7.87142857 33.0817283,8.91428571 L33.0817283,7.44285714 L36.1622419,7.44285714 C36.510845,8.01428571 36.0910984,7.31428571 36.9590491,8.75714286 L36.9590491,7.44285714 L39.7976748,7.44285714 L39.7976748,14.0142857 L36.8381052,14.0142857 C36.4539302,13.3714286 36.7385043,13.8571429 35.8990109,12.45 L35.8990109,14.0142857 L32.142634,14.0142857 C31.6873156,12.9571429 32.1355197,13.9928571 31.6730869,12.9214286 L30.3213604,12.9214286 C30.0225577,13.6357143 30.1648447,13.2928571 29.866042,14.0142857 L27.9593961,14.0142857 C27.0843311,14.0142857 26.3728961,13.8 25.8464341,13.3785714 L25.8464341,14.0142857 L21.1153913,14.0142857 C21.0940482,13.0214286 21.1082769,12.2428571 21.1082769,12.2428571 C20.9802186,12.2214286 20.866389,12.2285714 20.4110706,12.2285714 L20.4110706,14.0214286 L10.7711261,14.0214286 L10.7711261,13.2071429 C10.5932674,13.6071429 10.5790387,13.6285714 10.4082943,14.0214286 L8.30956099,14.0214286 C8.02498699,13.3857143 8.10324484,13.5642857 7.94672913,13.2071429 L7.94672913,14.0214286 L4.1832379,14.0214286 C3.88443519,13.3 4.02672219,13.6428571 3.72791949,12.9285714 L2.36196425,12.9285714 C2.06316155,13.6428571 2.20544855,13.3 1.90664584,14.0214286 L0.0142287003,14.0214286 L0.0142287003,28.5714286 C0.0142287003,30.4642857 1.54381399,32 3.42911678,32 L37.5851119,32 C39.4704147,32 41,30.4642857 41,28.5714286 L41,22.1142857 C40.0964775,22.7071429 38.6736075,22.55 36.1978136,22.55 Z M38.7803227,17.9428571 L40.9217421,17.9428571 L40.9217421,16.9 L38.5811209,16.9 C37.6704841,16.9 36.8879056,17.3714286 36.8879056,18.3785714 C36.8879056,20.7357143 39.9257331,19.2928571 39.9257331,20.3357143 C39.9257331,20.7 39.6198161,20.7928571 39.3281277,20.7928571 L37.0515357,20.7928571 L37.0444213,21.85 L39.3210134,21.85 C39.9186188,21.85 40.573139,21.7214286 40.9217421,21.2142857 L40.9217421,19.3714286 C40.1747354,18.3857143 38.1258025,19.2785714 38.1258025,18.4071429 C38.1258025,17.9928571 38.4530626,17.9428571 38.7803227,17.9428571 L38.7803227,17.9428571 Z M34.7251432,20.7857143 L32.4343224,20.7857143 L32.4272081,21.8428571 L34.7180288,21.8428571 C35.7709526,21.8428571 36.5819885,21.4428571 36.5819885,20.2714286 C36.5819885,17.9 33.5299323,19.4714286 33.5299323,18.3928571 C33.5299323,17.9928571 33.8785355,17.9357143 34.1844525,17.9357143 L36.347215,17.9357143 L36.347215,16.8928571 L33.9852507,16.8928571 C33.0746139,16.8928571 32.3133784,17.3642857 32.3133784,18.3714286 C32.3133784,20.7285714 35.351206,19.2642857 35.351206,20.3285714 C35.3440916,20.7142857 35.0168315,20.7857143 34.7251432,20.7857143 L34.7251432,20.7857143 Z M31.7228874,17.9214286 L31.7228874,16.9 L27.7957661,16.9 L27.7886517,21.85 L31.715773,21.85 L31.7228874,20.8285714 L28.9767482,20.8071429 L28.9767482,19.8214286 L31.6730869,19.8214286 L31.6730869,18.8142857 L28.9838626,18.8142857 L28.9838626,17.9214286 L31.7228874,17.9214286 Z M27.7175082,10.2 C27.6961652,10.2142857 27.6179073,10.3571429 27.6179073,10.7428571 C27.6179073,11.1714286 27.6819365,11.2928571 27.6961652,11.3071429 C27.7103939,11.3142857 27.774423,11.3428571 27.9380531,11.3428571 L28.4574007,10.1357143 C28.3791428,10.1357143 28.3079993,10.1285714 28.2368558,10.1285714 C27.8384522,10.1285714 27.7388513,10.1785714 27.7175082,10.2 Z M29.2322067,9.50784091 L29.2135704,9.50784091 L29.2322067,9.50784091 Z M28.0163109,8.36428571 C26.3444387,8.36428571 25.5974319,9.22142857 25.5974319,10.8857143 C25.5974319,12.4714286 26.3230956,13.3142857 27.9451674,13.3142857 L29.3111227,13.3142857 L29.7664411,12.2214286 L32.2066632,12.2214286 L32.6762103,13.3142857 L35.0737463,13.3142857 L35.0737463,9.60714286 L37.2934236,13.3142857 L38.9724102,13.3142857 L38.9724102,8.38571429 L37.770085,8.38571429 L37.770085,11.8214286 L35.6998091,8.38571429 L33.8998785,8.38571429 L33.8998785,13.0571429 L31.9149748,8.38571429 L30.150616,8.38571429 L28.4787437,12.2785714 L27.9522818,12.2785714 C27.0060732,12.2785714 26.8068714,11.7 26.8068714,10.8571429 C26.8068714,9.15714286 27.9238244,9.42857143 29.1617213,9.45 L29.1617213,8.36428571 L28.0163109,8.36428571 Z M31.0114524,9.22857143 L31.8082596,11.2 L30.1861877,11.2 L31.0114524,9.22857143 Z M23.8188444,8.37142857 L23.8188444,13.3214286 L25.0211695,13.3214286 L25.0211695,8.37142857 L23.8188444,8.37142857 Z" id="cc-amex-brands"></path>
        </g>
        <g id="full-cc-discover-brands-copy" transform="translate(82.000000, 0.000000)" fill="#505050" fill-rule="nonzero">
            <path d="M37.0423611,11.7214286 C37.0423611,11.1571429 36.6508681,10.8571429 35.9319444,10.8571429 L35.5831597,10.8571429 L35.5831597,12.6357143 L35.9177083,12.6357143 C36.6508681,12.6357143 37.0423611,12.3214286 37.0423611,11.7214286 Z M37.5833333,1.77635684e-15 L3.41666667,1.77635684e-15 C1.53038194,1.77635684e-15 0,1.53571429 0,3.42857143 L0,28.5714286 C0,30.4642857 1.53038194,32 3.41666667,32 L37.5833333,32 C39.4696181,32 41,30.4642857 41,28.5714286 L41,3.42857143 C41,1.53571429 39.4696181,1.77635684e-15 37.5833333,1.77635684e-15 Z M34.4442708,9.92142857 C36.0529514,9.92142857 38.2097222,9.62857143 38.2097222,11.6642857 C38.2097222,12.5642857 37.7399306,13.1428571 36.8786458,13.3214286 L38.7151042,15.7785714 L37.3199653,15.7785714 L35.7397569,13.4357143 L35.5831597,13.4357143 L35.5831597,15.7785714 L34.4442708,15.7785714 L34.4442708,9.92142857 Z M30.4652778,9.92857143 L33.6897569,9.92857143 L33.6897569,10.9285714 L31.6041667,10.9285714 L31.6041667,12.2285714 L33.6185764,12.2285714 L33.6185764,13.2142857 L31.6041667,13.2142857 L31.6041667,14.8 L33.6897569,14.8 L33.6897569,15.7857143 L30.4652778,15.7857143 L30.4652778,9.92857143 Z M25.5751736,9.92857143 L27.1340278,13.8714286 L28.7142361,9.92857143 L29.9598958,9.92857143 L27.4329861,15.9428571 L26.8208333,15.9428571 L24.3295139,9.92857143 L25.5751736,9.92857143 Z M21.5961806,9.71428571 C23.3543403,9.71428571 24.7708333,11.1428571 24.7708333,12.9 C24.7708333,14.6642857 23.3472222,16.0857143 21.5961806,16.0857143 C19.8380208,16.0857143 18.4215278,14.6571429 18.4215278,12.9 C18.4215278,11.1357143 19.8451389,9.71428571 21.5961806,9.71428571 Z M18.0869792,10.15 L18.0869792,11.5071429 C16.65625,10.0714286 14.7557292,11.1714286 14.7557292,12.8642857 C14.7557292,14.65 16.7131944,15.6142857 18.0869792,14.2357143 L18.0869792,15.5928571 C15.9729167,16.6142857 13.58125,15.1857143 13.58125,12.8642857 C13.58125,10.6357143 15.9373264,9.07857143 18.0869792,10.15 L18.0869792,10.15 Z M11.1682292,14.8857143 C11.9796875,14.8857143 12.7626736,13.7928571 10.9333333,13.1428571 C9.865625,12.75 9.49548611,12.3285714 9.49548611,11.5214286 C9.49548611,9.86428571 11.6736111,9.27857143 13.0331597,10.5 L12.4352431,11.2714286 C11.6949653,10.4428571 10.6628472,10.8285714 10.6628472,11.45 C10.6628472,11.7642857 10.8550347,11.9428571 11.5383681,12.1857143 C12.8338542,12.6571429 13.2182292,13.0785714 13.2182292,14.0142857 C13.2182292,16.1214286 10.4564236,16.6857143 9.18940972,14.8214286 L9.92256944,14.1142857 C10.1859375,14.6214286 10.6272569,14.8857143 11.1682292,14.8857143 L11.1682292,14.8857143 Z M3.94340278,15.7857143 L2.27777778,15.7857143 L2.27777778,9.92857143 L3.94340278,9.92857143 C5.80121528,9.92857143 7.08246528,11.1428571 7.08246528,12.8642857 C7.08246528,14.1857143 6.14288194,15.7857143 3.94340278,15.7857143 Z M8.74809028,15.7857143 L7.60920139,15.7857143 L7.60920139,9.92857143 L8.74809028,9.92857143 L8.74809028,15.7857143 Z M38.7222222,28.6428571 C38.7222222,29.2285714 38.2381944,29.7142857 37.6545139,29.7142857 L9.11111111,29.7142857 C22.6069444,27.1714286 36.3519097,19.7714286 38.7222222,18.2857143 L38.7222222,28.6428571 Z M5.27447917,11.4 C4.90434028,11.05 4.44878472,10.9285714 3.715625,10.9285714 L3.41666667,10.9285714 L3.41666667,14.8 L3.715625,14.8 C4.44878472,14.8 4.92569444,14.6571429 5.27447917,14.3428571 C5.68020833,13.9714286 5.90798611,13.4285714 5.90798611,12.8642857 C5.90798611,12.3 5.68020833,11.7571429 5.27447917,11.4 Z" id="cc-discover-brands"></path>
        </g>
        <g id="full-cc-mastercard-brands-copy" transform="translate(123.000000, 0.000000)" fill="#505050" fill-rule="nonzero">
            <path d="M34.3730903,26.95 C34.3730903,27.4357143 34.0456597,27.7857143 33.5758681,27.7857143 C33.0918403,27.7857143 32.7786458,27.4142857 32.7786458,26.95 C32.7786458,26.4857143 33.0918403,26.1142857 33.5758681,26.1142857 C34.0456597,26.1142857 34.3730903,26.4857143 34.3730903,26.95 Z M12.2501736,26.1142857 C11.7447917,26.1142857 11.4529514,26.4857143 11.4529514,26.95 C11.4529514,27.4142857 11.7447917,27.7857143 12.2501736,27.7857143 C12.7128472,27.7857143 13.0260417,27.4357143 13.0260417,26.95 C13.0189236,26.4857143 12.7128472,26.1142857 12.2501736,26.1142857 Z M20.6138889,26.0928571 C20.2295139,26.0928571 19.9946181,26.3428571 19.9376736,26.7142857 L21.2972222,26.7142857 C21.2331597,26.3071429 20.9840278,26.0928571 20.6138889,26.0928571 Z M28.2871528,26.1142857 C27.803125,26.1142857 27.5112847,26.4857143 27.5112847,26.95 C27.5112847,27.4142857 27.803125,27.7857143 28.2871528,27.7857143 C28.7711806,27.7857143 29.084375,27.4357143 29.084375,26.95 C29.084375,26.4857143 28.7711806,26.1142857 28.2871528,26.1142857 Z M35.8251736,27.9785714 C35.8251736,28 35.8465278,28.0142857 35.8465278,28.0571429 C35.8465278,28.0785714 35.8251736,28.0928571 35.8251736,28.1357143 C35.8038194,28.1571429 35.8038194,28.1714286 35.7895833,28.1928571 C35.7682292,28.2142857 35.7539931,28.2285714 35.7112847,28.2285714 C35.6899306,28.25 35.6756944,28.25 35.6329861,28.25 C35.6116319,28.25 35.5973958,28.25 35.5546875,28.2285714 C35.5333333,28.2285714 35.5190972,28.2071429 35.4977431,28.1928571 C35.4763889,28.1714286 35.4621528,28.1571429 35.4621528,28.1357143 C35.4407986,28.1 35.4407986,28.0785714 35.4407986,28.0571429 C35.4407986,28.0214286 35.4407986,28 35.4621528,27.9785714 C35.4621528,27.9428571 35.4835069,27.9214286 35.4977431,27.9 C35.5190972,27.8785714 35.5333333,27.8785714 35.5546875,27.8642857 C35.5902778,27.8428571 35.6116319,27.8428571 35.6329861,27.8428571 C35.6685764,27.8428571 35.6899306,27.8428571 35.7112847,27.8642857 C35.746875,27.8857143 35.7682292,27.8857143 35.7895833,27.9 C35.8109375,27.9142857 35.8038194,27.9428571 35.8251736,27.9785714 Z M35.7255208,28.0571429 C35.746875,28.0357143 35.746875,28.0214286 35.746875,28 C35.746875,27.9785714 35.746875,27.9642857 35.7255208,27.9428571 C35.7041667,27.9428571 35.6899306,27.9214286 35.6472222,27.9214286 L35.5333333,27.9214286 L35.5333333,28.1714286 L35.5902778,28.1714286 L35.5902778,28.0714286 L35.6116319,28.0714286 L35.6899306,28.1714286 L35.746875,28.1714286 L35.6685764,28.0785714 C35.7041667,28.0785714 35.7041667,28.0571429 35.7255208,28.0571429 Z M41,3.42857143 L41,28.5714286 C41,30.4642857 39.4696181,32 37.5833333,32 L3.41666667,32 C1.53038194,32 0,30.4642857 0,28.5714286 L0,3.42857143 C0,1.53571429 1.53038194,1.77635684e-15 3.41666667,1.77635684e-15 L37.5833333,1.77635684e-15 C39.4696181,1.77635684e-15 41,1.53571429 41,3.42857143 Z M4.55555556,13.4 C4.55555556,18.8642857 8.97586806,23.2928571 14.4140625,23.2928571 C16.3501736,23.2928571 18.2506944,22.7071429 19.859375,21.6428571 C14.6703125,17.4071429 14.7059028,9.41428571 19.859375,5.17857143 C18.2506944,4.10714286 16.3501736,3.52856281 14.4140625,3.52856281 C8.97586806,3.52142857 4.55555556,7.95714286 4.55555556,13.4 Z M20.5,21.1714286 C25.5182292,17.2428571 25.496875,9.58571429 20.5,5.63571429 C15.503125,9.58571429 15.4817708,17.25 20.5,21.1714286 Z M10.3710069,26.6214286 C10.3710069,26 9.96527778,25.5928571 9.32465278,25.5714286 C8.99722222,25.5714286 8.6484375,25.6714286 8.41354167,26.0357143 C8.24270833,25.7428571 7.95086806,25.5714286 7.54513889,25.5714286 C7.27465278,25.5714286 7.00416667,25.6714286 6.790625,25.9571429 L6.790625,25.6428571 L6.20694444,25.6428571 L6.20694444,28.2642857 L6.790625,28.2642857 C6.790625,26.9142857 6.61267361,26.1071429 7.43125,26.1071429 C8.15729167,26.1071429 8.01493056,26.8357143 8.01493056,28.2642857 L8.57725694,28.2642857 C8.57725694,26.9571429 8.39930556,26.1071429 9.21788194,26.1071429 C9.94392361,26.1071429 9.8015625,26.8214286 9.8015625,28.2642857 L10.3852431,28.2642857 L10.3852431,26.6214286 L10.3710069,26.6214286 Z M13.5670139,25.6428571 L13.0046875,25.6428571 L13.0046875,25.9571429 C12.8125,25.7214286 12.5420139,25.5714286 12.171875,25.5714286 C11.4387153,25.5714286 10.8763889,26.1571429 10.8763889,26.95 C10.8763889,27.75 11.4387153,28.3285714 12.171875,28.3285714 C12.5420139,28.3285714 12.8125,28.1928571 13.0046875,27.9428571 L13.0046875,28.2714286 L13.5670139,28.2714286 L13.5670139,25.6428571 Z M14.8197917,26.3857143 C14.8197917,25.9785714 15.6668403,26.0428571 16.1366319,26.3071429 L16.3715278,25.8428571 C15.7024306,25.4071429 14.221875,25.4142857 14.221875,26.4285714 C14.221875,27.45 15.8519097,27.0214286 15.8519097,27.5 C15.8519097,27.95 14.8909722,27.9142857 14.3784722,27.5571429 L14.1293403,28.0071429 C14.9265625,28.55 16.4498264,28.4357143 16.4498264,27.4714286 C16.4498264,26.4 14.8197917,26.8857143 14.8197917,26.3857143 Z M18.8130208,27.65 C18.5425347,27.8 17.9446181,27.9642857 17.9446181,27.3571429 L17.9446181,26.1714286 L18.8770833,26.1714286 L18.8770833,25.6428571 L17.9446181,25.6428571 L17.9446181,24.8428571 L17.3609375,24.8428571 L17.3609375,25.6428571 L16.8199653,25.6428571 L16.8199653,26.1642857 L17.3609375,26.1642857 L17.3609375,27.3571429 C17.3609375,28.6142857 18.5923611,28.3857143 18.9696181,28.1357143 L18.8130208,27.65 Z M21.8737847,27.1785714 C21.8737847,26.0214286 21.3470486,25.5642857 20.6352431,25.5642857 C19.8807292,25.5642857 19.3397569,26.1285714 19.3397569,26.9428571 C19.3397569,28.4071429 20.9484375,28.65 21.7456597,27.9571429 L21.4751736,27.5285714 C20.9199653,27.9857143 20.0800347,27.9428571 19.9163194,27.1785714 L21.8737847,27.1785714 Z M23.0411458,25.9571429 L23.0411458,25.6428571 L22.4574653,25.6428571 L22.4574653,28.2642857 L23.0411458,28.2642857 L23.0411458,26.7857143 C23.0411458,25.9571429 23.7173611,26.0642857 23.9522569,26.1857143 L24.1230903,25.6428571 C23.7956597,25.5 23.2973958,25.5142857 23.0411458,25.9571429 Z M24.8776042,26.95 C24.8776042,26.1357143 25.7032986,25.8714286 26.3510417,26.35 L26.6215278,25.8857143 C25.7958333,25.2357143 24.2939236,25.5928571 24.2939236,26.9571429 C24.2939236,28.3714286 25.8883681,28.6571429 26.6215278,28.0285714 L26.3510417,27.5642857 C25.6961806,28.0285714 24.8776042,27.75 24.8776042,26.95 Z M29.0416667,25.6428571 L29.0416667,25.9571429 C28.4508681,25.1714286 26.9133681,25.6142857 26.9133681,26.95 C26.9133681,28.3214286 28.5078125,28.7142857 29.0416667,27.9428571 L29.0416667,28.2714286 L29.6253472,28.2714286 L29.6253472,25.6428571 L29.0416667,25.6428571 Z M30.9421875,25.9571429 L30.9421875,25.6428571 L30.3798611,25.6428571 L30.3798611,28.2642857 L30.9421875,28.2642857 L30.9421875,26.7857143 C30.9421875,26 31.5828125,26.05 31.8532986,26.1857143 L32.0241319,25.6428571 C31.8532986,25.5571429 31.2411458,25.4357143 30.9421875,25.9571429 Z M34.8927083,24.5785714 L34.3303819,24.5785714 L34.3303819,25.9571429 C33.7467014,25.1785714 32.2020833,25.5928571 32.2020833,26.95 C32.2020833,28.3357143 33.8036458,28.7071429 34.3303819,27.9428571 L34.3303819,28.2714286 L34.8927083,28.2714286 L34.8927083,24.5785714 Z M35.4336806,19.5428571 L35.490625,19.5428571 L35.490625,19.2142857 L35.6258681,19.2142857 L35.6258681,19.1571429 L35.2984375,19.1571429 L35.2984375,19.2142857 L35.4336806,19.2142857 L35.4336806,19.5428571 Z M35.9034722,28.0571429 C35.9034722,28.0214286 35.9034722,27.9785714 35.8821181,27.9428571 C35.8607639,27.9214286 35.8465278,27.8857143 35.8251736,27.8642857 C35.8038194,27.8428571 35.7682292,27.8285714 35.746875,27.8071429 C35.7112847,27.8071429 35.6685764,27.7857143 35.6329861,27.7857143 C35.6116319,27.7857143 35.5760417,27.8071429 35.5333333,27.8071429 C35.4977431,27.8285714 35.4763889,27.8428571 35.4550347,27.8642857 C35.4194444,27.8857143 35.3980903,27.9214286 35.3980903,27.9428571 C35.3767361,27.9785714 35.3767361,28.0214286 35.3767361,28.0571429 C35.3767361,28.0785714 35.3767361,28.1142857 35.3980903,28.1571429 C35.3980903,28.1785714 35.4194444,28.2142857 35.4550347,28.2357143 C35.4763889,28.2571429 35.490625,28.2714286 35.5333333,28.2928571 C35.5689236,28.3142857 35.6116319,28.3142857 35.6329861,28.3142857 C35.6685764,28.3142857 35.7112847,28.3142857 35.746875,28.2928571 C35.7682292,28.2714286 35.8038194,28.2571429 35.8251736,28.2357143 C35.8465278,28.2142857 35.8607639,28.1785714 35.8821181,28.1571429 C35.9034722,28.1142857 35.9034722,28.0785714 35.9034722,28.0571429 Z M36.0315972,19.15 L35.9177083,19.4 L35.8038194,19.15 L35.7041667,19.15 L35.7041667,19.5357143 L35.7611111,19.5357143 L35.7611111,19.2428571 L35.875,19.4928571 L35.9532986,19.4928571 L36.0529514,19.2428571 L36.0529514,19.5357143 L36.13125,19.5357143 L36.13125,19.15 L36.0315972,19.15 Z M36.4444444,13.4 C36.4444444,7.95714286 32.0241319,3.52142857 26.5859375,3.52142857 C24.6498264,3.52142857 22.7493056,4.10714286 21.140625,5.17142857 C26.2727431,9.40714286 26.3510417,17.4214286 21.140625,21.6357143 C22.7493056,22.7071429 24.6640625,23.2857229 26.5859375,23.2857229 C32.0241319,23.2928571 36.4444444,18.8642857 36.4444444,13.4 Z" id="cc-mastercard-brands"></path>
        </g>
        <g id="full-cc-paypal-brands-copy" transform="translate(164.000000, 0.000000)" fill="#505050" fill-rule="nonzero">
            <path d="M13.2609375,16.1571429 C13.2609375,17.0285714 12.5704861,17.6928571 11.6949653,17.6928571 C11.0401042,17.6928571 10.5560764,17.3214286 10.5560764,16.6214286 C10.5560764,15.75 11.2322917,15.05 12.1006944,15.05 C12.7626736,15.05 13.2609375,15.4571429 13.2609375,16.1571429 Z M5.73003472,12.6928571 L5.39548611,12.6928571 C5.28871528,12.6928571 5.18194444,12.7642857 5.16770833,12.8857143 L4.86163194,14.7928571 L5.4453125,14.7714286 C6.22829861,14.7714286 6.83333333,14.6642857 6.97569444,13.7571429 C7.13940972,12.8 6.534375,12.6928571 5.73003472,12.6928571 L5.73003472,12.6928571 Z M25.9453125,12.6928571 L25.625,12.6928571 C25.496875,12.6928571 25.4114583,12.7642857 25.3972222,12.8857143 L25.0982639,14.7928571 L25.6677083,14.7714286 C26.5930556,14.7714286 27.2336806,14.5571429 27.2336806,13.4857143 C27.2265625,12.7285714 26.5503472,12.6928571 25.9453125,12.6928571 L25.9453125,12.6928571 Z M41,3.42857143 L41,28.5714286 C41,30.4642857 39.4696181,32 37.5833333,32 L3.41666667,32 C1.53038194,32 0,30.4642857 0,28.5714286 L0,3.42857143 C0,1.53571429 1.53038194,1.77635684e-15 3.41666667,1.77635684e-15 L37.5833333,1.77635684e-15 C39.4696181,1.77635684e-15 41,1.53571429 41,3.42857143 Z M9.13246528,13.1 C9.13246528,11.6 7.97934028,11.1 6.6625,11.1 L3.81527778,11.1 C3.63732639,11.1 3.459375,11.2428571 3.44513889,11.4357143 L2.27777778,18.7285714 C2.25642361,18.8714286 2.36319444,19.0142857 2.50555556,19.0142857 L3.85798611,19.0142857 C4.05017361,19.0142857 4.228125,18.8071429 4.24947917,18.6071429 L4.56979167,16.7071429 C4.64097222,16.1928571 5.509375,16.3714286 5.85104167,16.3714286 C7.88680556,16.3714286 9.13246528,15.1571429 9.13246528,13.1 L9.13246528,13.1 Z M15.1258681,13.7285714 L13.7734375,13.7285714 C13.5029514,13.7285714 13.4887153,14.1214286 13.4744792,14.3142857 C13.0616319,13.7071429 12.4637153,13.6 11.7875,13.6 C10.0435764,13.6 8.7125,15.1357143 8.7125,16.8285714 C8.7125,18.2214286 9.58090278,19.1285714 10.9689236,19.1285714 C11.6095486,19.1285714 12.4067708,18.7785714 12.8552083,18.2785714 C12.8196181,18.3857143 12.7840278,18.6142857 12.7840278,18.7214286 C12.7840278,18.8857143 12.8552083,19.0071429 13.0118056,19.0071429 L14.2361111,19.0071429 C14.4282986,19.0071429 14.5920139,18.8 14.6276042,18.6 L15.3536458,14.0071429 C15.375,13.8714286 15.2682292,13.7285714 15.1258681,13.7285714 Z M18.0086806,20.7214286 L22.5428819,14.1071429 C22.5784722,14.0714286 22.5784722,14.0357143 22.5784722,13.9857143 C22.5784722,13.8642857 22.4717014,13.7357143 22.3506944,13.7357143 L20.9840278,13.7357143 C20.8630208,13.7357143 20.7348958,13.8071429 20.6637153,13.9142857 L18.7774306,16.7 L17.9944444,14.0214286 C17.9375,13.8642857 17.7809028,13.7357143 17.6029514,13.7357143 L16.271875,13.7357143 C16.1508681,13.7357143 16.0440972,13.8642857 16.0440972,13.9857143 C16.0440972,14.0714286 17.4321181,18.0428571 17.553125,18.4214286 C17.3609375,18.6928571 16.0939236,20.4642857 16.0939236,20.6785714 C16.0939236,20.8071429 16.2006944,20.9071429 16.3217014,20.9071429 L17.6883681,20.9071429 C17.8164931,20.9 17.9375,20.8285714 18.0086806,20.7214286 L18.0086806,20.7214286 Z M29.3477431,13.1 C29.3477431,11.6 28.1946181,11.1 26.8777778,11.1 L24.0519097,11.1 C23.8597222,11.1 23.6817708,11.2428571 23.6604167,11.4357143 L22.5072917,18.7214286 C22.4930556,18.8642857 22.5998264,19.0071429 22.7350694,19.0071429 L24.1942708,19.0071429 C24.3366319,19.0071429 24.4434028,18.9 24.4789931,18.7785714 L24.7993056,16.7071429 C24.8704861,16.1928571 25.7388889,16.3714286 26.0805556,16.3714286 C28.1020833,16.3714286 29.3477431,15.1571429 29.3477431,13.1 Z M35.3411458,13.7285714 L33.9887153,13.7285714 C33.7182292,13.7285714 33.7039931,14.1214286 33.6826389,14.3142857 C33.2911458,13.7071429 32.6861111,13.6 31.9956597,13.6 C30.2517361,13.6 28.9206597,15.1357143 28.9206597,16.8285714 C28.9206597,18.2214286 29.7890625,19.1285714 31.1770833,19.1285714 C31.8390625,19.1285714 32.6362847,18.7785714 33.0633681,18.2785714 C33.0420139,18.3857143 32.9921875,18.6142857 32.9921875,18.7214286 C32.9921875,18.8857143 33.0633681,19.0071429 33.2199653,19.0071429 L34.4513889,19.0071429 C34.6435764,19.0071429 34.8072917,18.8 34.8428819,18.6 L35.5689236,14.0071429 C35.5902778,13.8714286 35.4835069,13.7285714 35.3411458,13.7285714 L35.3411458,13.7285714 Z M38.7222222,11.35 C38.7222222,11.2071429 38.6154514,11.1 38.4944444,11.1 L37.1776042,11.1 C37.0708333,11.1 36.9640625,11.1857143 36.9498264,11.2928571 L35.7967014,18.7214286 L35.7753472,18.7571429 C35.7753472,18.8857143 35.8821181,19.0071429 36.0244792,19.0071429 L37.1989583,19.0071429 C37.3769097,19.0071429 37.5548611,18.8 37.5690972,18.6 L38.7222222,11.3714286 L38.7222222,11.35 L38.7222222,11.35 Z M32.3159722,15.05 C31.4475694,15.05 30.7713542,15.7428571 30.7713542,16.6214286 C30.7713542,17.3142857 31.2696181,17.6928571 31.9244792,17.6928571 C32.7786458,17.6928571 33.4690972,17.0357143 33.4690972,16.1571429 C33.4762153,15.4571429 32.9779514,15.05 32.3159722,15.05 Z" id="cc-paypal-brands"></path>
        </g>
        <g id="full-cc-visa-brands-copy" transform="translate(205.000000, 0.000000)" fill="#505050" fill-rule="nonzero">
            <path d="M33.4619792,14.2357143 C33.4619792,14.2357143 34.0029514,16.8928571 34.1239583,17.45 L31.7465278,17.45 C31.9814236,16.8142857 32.8854167,14.3428571 32.8854167,14.3428571 C32.8711806,14.3642857 33.1203125,13.6928571 33.2626736,13.2785714 L33.4619792,14.2357143 Z M41,3.42857143 L41,28.5714286 C41,30.4642857 39.4696181,32 37.5833333,32 L3.41666667,32 C1.53038194,32 0,30.4642857 0,28.5714286 L0,3.42857143 C0,1.53571429 1.53038194,1.77635684e-15 3.41666667,1.77635684e-15 L37.5833333,1.77635684e-15 C39.4696181,1.77635684e-15 41,1.53571429 41,3.42857143 Z M10.8550347,21.3714286 L15.3536458,10.2857143 L12.3284722,10.2857143 L9.53107639,17.8571429 L9.225,16.3214286 L8.22847222,11.2214286 C8.06475694,10.5142857 7.559375,10.3142857 6.93298611,10.2857143 L2.32760417,10.2857143 L2.27777778,10.5071429 C3.40243056,10.7928571 4.40607639,11.2071429 5.28159722,11.7285714 L7.82986111,21.3714286 L10.8550347,21.3714286 Z M17.5744792,21.3857143 L19.3682292,10.2857143 L16.5067708,10.2857143 L14.7201389,21.3857143 L17.5744792,21.3857143 L17.5744792,21.3857143 Z M27.5326389,17.7571429 C27.546875,16.4928571 26.778125,15.5285714 25.1338542,14.7357143 C24.1302083,14.2285714 23.5180556,13.8857143 23.5180556,13.3642857 C23.5322917,12.8928571 24.0376736,12.4071429 25.1623264,12.4071429 C26.0947917,12.3857143 26.778125,12.6071429 27.290625,12.8285714 L27.546875,12.95 L27.9383681,10.55 C27.3760417,10.3285714 26.4791667,10.0785714 25.3758681,10.0785714 C22.55,10.0785714 20.5640625,11.5928571 20.5498264,13.75 C20.5284722,15.3428571 21.9734375,16.2285714 23.0553819,16.7642857 C24.1586806,17.3071429 24.5359375,17.6642857 24.5359375,18.1428571 C24.5217014,18.8857143 23.6390625,19.2285714 22.8204861,19.2285714 C21.6815972,19.2285714 21.0694444,19.05 20.1369792,18.6357143 L19.7597222,18.4571429 L19.3611111,20.95 C20.0302083,21.2571429 21.26875,21.5285714 22.55,21.5428827 C25.5538194,21.55 27.5112847,20.0571429 27.5326389,17.7571429 Z M37.5833333,21.3857143 L35.2770833,10.2857143 L33.0633681,10.2857143 C32.3800347,10.2857143 31.8604167,10.4857143 31.5685764,11.2071429 L27.3190972,21.3857143 L30.3229167,21.3857143 C30.3229167,21.3857143 30.8140625,20.0142857 30.9208333,19.7214286 L34.59375,19.7214286 C34.6791667,20.1142857 34.9354167,21.3857143 34.9354167,21.3857143 L37.5833333,21.3857143 Z" id="cc-visa-brands"></path>
        </g>
    </g>
</svg>