<?xml version="1.0" encoding="UTF-8"?>
<svg width="552px" height="24px" viewBox="0 0 552 24" version="1.1" xmlns="http://www.w3.org/2000/svg" xmlns:xlink="http://www.w3.org/1999/xlink">
    <!-- Generator: Sketch 57.1 (83088) - https://sketch.com -->
    <title>Sprite</title>
    <desc>Created with Sketch.</desc>
    <g id="Sprite" stroke="none" stroke-width="1" fill="none" fill-rule="evenodd">
        <g id="search" fill="#505050" fill-rule="nonzero">
            <path d="M9.5,3 C13.0898509,3 16,5.91014913 16,9.5 C16,11.11 15.41,12.59 14.44,13.73 L14.71,14 L15.5,14 L20.5,19 L19,20.5 L14,15.5 L14,14.71 L13.73,14.44 C12.59,15.41 11.11,16 9.5,16 C5.91014913,16 3,13.0898509 3,9.5 C3,5.91014913 5.91014913,3 9.5,3 L9.5,3 Z M9.5,5 C7,5 5,7 5,9.5 C5,12 7,14 9.5,14 C12,14 14,12 14,9.5 C14,7 12,5 9.5,5 Z"></path>
        </g>
        <g id="pin" transform="translate(24.000000, 0.000000)" fill="#505050" fill-rule="nonzero">
            <polygon points="16 12 16 4 17 4 17 2 7 2 7 4 8 4 8 12 6 14 6 16 11.2 16 11.2 22 12.8 22 12.8 16 18 16 18 14"></polygon>
        </g>
        <g id="google-plus" transform="translate(48.000000, 0.000000)" fill="#505050" fill-rule="nonzero">
            <path d="M23,11 L21,11 L21,9 L19,9 L19,11 L17,11 L17,13 L19,13 L19,15 L21,15 L21,13 L23,13 L23,11 Z M8,11 L8,13.4 L12,13.4 C11.8,14.4 10.8,16.4 8,16.4 C5.6,16.4 3.7,14.4 3.7,12 C3.7,9.6 5.6,7.6 8,7.6 C9.4,7.6 10.3,8.2 10.8,8.7 L12.7,6.9 C11.5,5.7 9.9,5 8,5 C4.1,5 1,8.1 1,12 C1,15.9 4.1,19 8,19 C12,19 14.7,16.2 14.7,12.2 C14.7,11.7 14.7,11.4 14.6,11 L8,11 Z"></path>
        </g>
        <g id="instagram" transform="translate(72.000000, 0.000000)" fill="#505050" fill-rule="nonzero">
            <path d="M7.8,2 L16.2,2 C19.4,2 22,4.6 22,7.8 L22,16.2 C22,19.4032515 19.4032515,22 16.2,22 L7.8,22 C4.6,22 2,19.4 2,16.2 L2,7.8 C2,4.59674845 4.59674845,2 7.8,2 L7.8,2 Z M7.6,4 C5.6117749,4 4,5.6117749 4,7.6 L4,16.4 C4,18.39 5.61,20 7.6,20 L16.4,20 C18.3882251,20 20,18.3882251 20,16.4 L20,7.6 C20,5.61 18.39,4 16.4,4 L7.6,4 L7.6,4 Z M17.25,5.5 C17.9403559,5.5 18.5,6.05964406 18.5,6.75 C18.5,7.44035594 17.9403559,8 17.25,8 C16.5596441,8 16,7.44035594 16,6.75 C16,6.05964406 16.5596441,5.5 17.25,5.5 L17.25,5.5 Z M12,7 C14.7614237,7 17,9.23857625 17,12 C17,14.7614237 14.7614237,17 12,17 C9.23857625,17 7,14.7614237 7,12 C7,9.23857625 9.23857625,7 12,7 L12,7 Z M12,9 C10.3431458,9 9,10.3431458 9,12 C9,13.6568542 10.3431458,15 12,15 C13.6568542,15 15,13.6568542 15,12 C15,10.3431458 13.6568542,9 12,9 Z"></path>
        </g>
        <g id="linkedin" transform="translate(96.000000, 0.000000)" fill="#505050" fill-rule="nonzero">
            <path d="M21,21 L17,21 L17,14.25 C17,13.19 15.81,12.31 14.75,12.31 C13.69,12.31 13,13.19 13,14.25 L13,21 L9,21 L9,9 L13,9 L13,11 C13.66,9.93 15.36,9.24 16.5,9.24 C19,9.24 21,11.28 21,13.75 L21,21 L21,21 Z M7,21 L3,21 L3,9 L7,9 L7,21 L7,21 Z M5,3 C6.1045695,3 7,3.8954305 7,5 C7,6.1045695 6.1045695,7 5,7 C3.8954305,7 3,6.1045695 3,5 C3,3.8954305 3.8954305,3 5,3 Z"></path>
        </g>
        <g id="facebook" transform="translate(120.000000, 0.000000)" fill="#505050" fill-rule="nonzero">
            <path d="M17,2 L17,2 L17,2 L17,6 L15,6 C14.31,6 14,6.81 14,7.5 L14,10 L14,10 L17,10 L17,14 L14,14 L14,22 L10,22 L10,14 L7,14 L7,10 L10,10 L10,6 C10,3.790861 11.790861,2 14,2 L17,2 Z"></path>
        </g>
        <g id="twitter" transform="translate(144.000000, 0.000000)" fill="#505050" fill-rule="nonzero">
            <path d="M22.92,6 C22.15,6.35 21.32,6.58 20.46,6.69 C21.34,6.16 22.02,5.32 22.34,4.31 C21.51,4.81 20.59,5.16 19.62,5.36 C18.83,4.5 17.72,4 16.46,4 C14.11,4 12.19,5.92 12.19,8.29 C12.19,8.63 12.23,8.96 12.3,9.27 C8.74,9.09 5.57,7.38 3.46,4.79 C3.09,5.42 2.88,6.16 2.88,6.94 C2.88,8.43 3.63,9.75 4.79,10.5 C4.08,10.5 3.42,10.3 2.84,10 C2.84,10 2.84,10 2.84,10.03 C2.84,12.11 4.32,13.85 6.28,14.24 C5.92,14.34 5.54,14.39 5.15,14.39 C4.88,14.39 4.61,14.36 4.35,14.31 C4.89,16 6.46,17.26 8.35,17.29 C6.89,18.45 5.04,19.13 3.02,19.13 C2.68,19.13 2.34,19.11 2,19.07 C3.9,20.29 6.16,21 8.58,21 C16.46,21 20.79,14.46 20.79,8.79 C20.79,8.6 20.79,8.42 20.78,8.23 C21.62,7.63 22.34,6.87 22.92,6 Z"></path>
        </g>
        <g id="rss" transform="translate(168.000000, 0.000000)" fill="#505050" fill-rule="nonzero">
            <path d="M6.18,15.2 C7.38398075,15.2 8.36,16.1760192 8.36,17.38 C8.36,18.56 7.38,19.56 6.18,19.56 C5,19.56 4,18.56 4,17.38 C4,16.1760192 4.97601925,15.2 6.18,15.2 L6.18,15.2 Z M4,4 C12.5935507,4 19.56,10.9664493 19.56,19.56 L16.73,19.56 C16.73,12.5294151 11.0305849,6.83 4,6.83 L4,4 L4,4 Z M4,9.66 C9.46761902,9.66 13.9,14.092381 13.9,19.56 L11.07,19.56 C11.07,17.6849194 10.3251271,15.8866373 8.99924494,14.5607551 C7.67336275,13.2348729 5.87508058,12.49 4,12.49 L4,9.66 Z"></path>
        </g>
        <g id="open-in-new" transform="translate(192.000000, 0.000000)" fill="#505050" fill-rule="nonzero">
            <path d="M14,3 L14,5 L17.59,5 L7.76,14.83 L9.17,16.24 L19,6.41 L19,10 L21,10 L21,3 L14,3 Z M19,19 L5,19 L5,5 L12,5 L12,3 L5,3 C3.89,3 3,3.9 3,5 L3,19 C3,20.1045695 3.8954305,21 5,21 L19,21 C20.1045695,21 21,20.1045695 21,19 L21,12 L19,12 L19,19 Z"></path>
        </g>
        <g id="pinterest" transform="translate(216.000000, 0.000000)" fill="#505050" fill-rule="nonzero">
            <path d="M9.04,21.54 C10,21.83 10.97,22 12,22 C17.5228475,22 22,17.5228475 22,12 C22,9.3478351 20.9464316,6.80429597 19.0710678,4.92893219 C17.195704,3.0535684 14.6521649,2 12,2 C6.4771525,2 2,6.4771525 2,12 C2,16.25 4.67,19.9 8.44,21.34 C8.35,20.56 8.26,19.27 8.44,18.38 L9.59,13.44 C9.59,13.44 9.3,12.86 9.3,11.94 C9.3,10.56 10.16,9.53 11.14,9.53 C12,9.53 12.4,10.16 12.4,10.97 C12.4,11.83 11.83,13.06 11.54,14.24 C11.37,15.22 12.06,16.08 13.06,16.08 C14.84,16.08 16.22,14.18 16.22,11.5 C16.22,9.1 14.5,7.46 12.03,7.46 C9.21,7.46 7.55,9.56 7.55,11.77 C7.55,12.63 7.83,13.5 8.29,14.07 C8.38,14.13 8.38,14.21 8.35,14.36 L8.06,15.45 C8.06,15.62 7.95,15.68 7.78,15.56 C6.5,15 5.76,13.18 5.76,11.71 C5.76,8.55 8,5.68 12.32,5.68 C15.76,5.68 18.44,8.15 18.44,11.43 C18.44,14.87 16.31,17.63 13.26,17.63 C12.29,17.63 11.34,17.11 11,16.5 L10.33,18.87 C10.1,19.73 9.47,20.88 9.04,21.57 L9.04,21.54 Z"></path>
        </g>
        <g id="vimeo" transform="translate(240.000000, 0.000000)" fill="#505050" fill-rule="nonzero">
            <path d="M22,7.01365964 C21.91,8.96365964 20.55,11.6336596 17.92,15.0336596 C15.2,18.5936596 12.9,20.3436596 11,20.3436596 C9.85,20.3436596 8.86,19.2636596 8.05,17.0936596 C7.5,15.1336596 7,13.1536596 6.44,11.1736596 C5.84,9.01365964 5.2,7.93365964 4.5,7.93365964 C4.36,7.93365964 3.84,8.25365964 2.94,8.88365964 L2,7.66365964 C3,6.79365964 3.96,5.92365964 4.92,5.05365964 C6.24,3.91365964 7.23,3.31365964 7.88,3.25365964 C9.44,3.09365964 10.4,4.17365964 10.76,6.45365964 C11.15,8.92365964 11.42,10.4536596 11.57,11.0536596 C12,13.0936596 12.5,14.0936596 13.05,14.0936596 C13.47,14.0936596 14.1,13.4536596 14.94,12.1236596 C15.78,10.8036596 16.23,9.79365964 16.29,9.09365964 C16.41,7.95365964 15.96,7.38365964 14.94,7.38365964 C14.46,7.38365964 13.97,7.49365964 13.46,7.71365964 C14.44,4.48365964 16.32,2.91365964 19.09,3.00365964 C21.15,3.06365964 22.12,4.40365964 22,7.01365964 Z"></path>
        </g>
        <g id="youtube" transform="translate(264.000000, 0.000000)" fill="#505050" fill-rule="nonzero">
            <path d="M10,15 L15.19,12 L10,9 L10,15 L10,15 Z M21.56,7.17 C21.69,7.64 21.78,8.27 21.84,9.07 C21.91,9.87 21.94,10.56 21.94,11.16 L22,12 C22,14.19 21.84,15.8 21.56,16.83 C21.31,17.73 20.73,18.31 19.83,18.56 C19.36,18.69 18.5,18.78 17.18,18.84 C15.88,18.91 14.69,18.94 13.59,18.94 L12,19 C7.81,19 5.2,18.84 4.17,18.56 C3.27,18.31 2.69,17.73 2.44,16.83 C2.31,16.36 2.22,15.73 2.16,14.93 C2.09,14.13 2.06,13.44 2.06,12.84 L2,12 C2,9.81 2.16,8.2 2.44,7.17 C2.69,6.27 3.27,5.69 4.17,5.44 C4.64,5.31 5.5,5.22 6.82,5.16 C8.12,5.09 9.31,5.06 10.41,5.06 L12,5 C16.19,5 18.8,5.16 19.83,5.44 C20.73,5.69 21.31,6.27 21.56,7.17 Z"></path>
        </g>
        <g id="calendar" transform="translate(288.000000, 0.000000)" fill="#505050" fill-rule="nonzero">
            <path d="M19,20 L5,20 L5,9 L19,9 L19,20 Z M16,2 L16,4 L8,4 L8,2 L6,2 L6,4 L5,4 C3.89,4 3,4.89 3,6 L3,20 C3,21.1045695 3.8954305,22 5,22 L19,22 C20.1045695,22 21,21.1045695 21,20 L21,6 C21,4.89 20.1,4 19,4 L18,4 L18,2 L16,2 Z M17,13 L12,13 L12,18 L17,18 L17,13 Z"></path>
        </g>
        <g id="chevron-right" transform="translate(312.000000, 0.000000)" fill="#505050" fill-rule="nonzero">
            <polygon points="8 16.58 12.58 12 8 7.41 9.41 6 15.41 12 9.41 18"></polygon>
        </g>
        <g id="chevron-left" transform="translate(336.000000, 0.000000)" fill="#505050" fill-rule="nonzero">
            <polygon points="15.41 16.58 10.83 12 15.41 7.41 14 6 8 12 14 18"></polygon>
        </g>
        <g id="credit-card-regular" transform="translate(360.000000, 0.000000)" fill="#505050" fill-rule="nonzero">
            <path d="M21.1628472,3 L2.83715278,3 C1.82118056,3 1,3.82118056 1,4.83333333 L1,18.2777778 C1,19.2899306 1.82118056,20.1111111 2.83715278,20.1111111 L21.1628472,20.1111111 C22.1788194,20.1111111 23,19.2899306 23,18.2777778 L23,4.83333333 C23,3.82118056 22.1788194,3 21.1628472,3 Z M3.06631944,4.83333333 L20.9336806,4.83333333 C21.0597222,4.83333333 21.1628472,4.93645833 21.1628472,5.0625 L21.1628472,6.66666667 L2.83715278,6.66666667 L2.83715278,5.0625 C2.83715278,4.93645833 2.94027778,4.83333333 3.06631944,4.83333333 Z M20.9336806,18.2777778 L3.06631944,18.2777778 C2.94027778,18.2777778 2.83715278,18.1746528 2.83715278,18.0486111 L2.83715278,11.5555556 L21.1628472,11.5555556 L21.1628472,18.0486111 C21.1628472,18.1746528 21.0597222,18.2777778 20.9336806,18.2777778 Z M8.33333333,14.4583333 L8.33333333,15.9861111 C8.33333333,16.2381944 8.12708333,16.4444444 7.875,16.4444444 L5.125,16.4444444 C4.87291667,16.4444444 4.66666667,16.2381944 4.66666667,15.9861111 L4.66666667,14.4583333 C4.66666667,14.20625 4.87291667,14 5.125,14 L7.875,14 C8.12708333,14 8.33333333,14.20625 8.33333333,14.4583333 Z M15.6666667,14.4583333 L15.6666667,15.9861111 C15.6666667,16.2381944 15.4604167,16.4444444 15.2083333,16.4444444 L10.0138889,16.4444444 C9.76180556,16.4444444 9.55555556,16.2381944 9.55555556,15.9861111 L9.55555556,14.4583333 C9.55555556,14.20625 9.76180556,14 10.0138889,14 L15.2083333,14 C15.4604167,14 15.6666667,14.20625 15.6666667,14.4583333 Z"></path>
        </g>
        <g id="cc-paypal-brands" transform="translate(384.000000, 0.000000)" fill="#505050" fill-rule="nonzero">
            <path d="M8.115625,11.6395833 C8.115625,12.1055556 7.74513889,12.4607639 7.27534722,12.4607639 C6.92395833,12.4607639 6.66423611,12.2621528 6.66423611,11.8878472 C6.66423611,11.421875 7.02708333,11.0475694 7.49305556,11.0475694 C7.84826389,11.0475694 8.115625,11.2652778 8.115625,11.6395833 Z M4.07465278,9.78715278 L3.89513889,9.78715278 C3.83784722,9.78715278 3.78055556,9.82534722 3.77291667,9.89027778 L3.60868056,10.9100694 L3.921875,10.8986111 C4.34201389,10.8986111 4.66666667,10.8413194 4.74305556,10.35625 C4.83090278,9.84444444 4.50625,9.78715278 4.07465278,9.78715278 L4.07465278,9.78715278 Z M14.921875,9.78715278 L14.75,9.78715278 C14.68125,9.78715278 14.6354167,9.82534722 14.6277778,9.89027778 L14.4673611,10.9100694 L14.7729167,10.8986111 C15.2694444,10.8986111 15.6131944,10.7840278 15.6131944,10.2111111 C15.609375,9.80625 15.2465278,9.78715278 14.921875,9.78715278 L14.921875,9.78715278 Z M23,4.83333333 L23,18.2777778 C23,19.2899306 22.1788194,20.1111111 21.1666667,20.1111111 L2.83333333,20.1111111 C1.82118056,20.1111111 1,19.2899306 1,18.2777778 L1,4.83333333 C1,3.82118056 1.82118056,3 2.83333333,3 L21.1666667,3 C22.1788194,3 23,3.82118056 23,4.83333333 Z M5.90034722,10.0048611 C5.90034722,9.20277778 5.28159722,8.93541667 4.575,8.93541667 L3.04722222,8.93541667 C2.95173611,8.93541667 2.85625,9.01180556 2.84861111,9.11493056 L2.22222222,13.0145833 C2.21076389,13.0909722 2.26805556,13.1673611 2.34444444,13.1673611 L3.07013889,13.1673611 C3.17326389,13.1673611 3.26875,13.0565972 3.28020833,12.9496528 L3.45208333,11.9336806 C3.49027778,11.6586806 3.95625,11.7541667 4.13958333,11.7541667 C5.23194444,11.7541667 5.90034722,11.1048611 5.90034722,10.0048611 L5.90034722,10.0048611 Z M9.11631944,10.3409722 L8.390625,10.3409722 C8.24548611,10.3409722 8.23784722,10.5510417 8.23020833,10.6541667 C8.00868056,10.3295139 7.68784722,10.2722222 7.325,10.2722222 C6.38923611,10.2722222 5.675,11.0934028 5.675,11.9986111 C5.675,12.7434028 6.14097222,13.2284722 6.88576389,13.2284722 C7.22951389,13.2284722 7.65729167,13.0413194 7.89791667,12.7739583 C7.87881944,12.83125 7.85972222,12.9534722 7.85972222,13.0107639 C7.85972222,13.0986111 7.89791667,13.1635417 7.98194444,13.1635417 L8.63888889,13.1635417 C8.74201389,13.1635417 8.82986111,13.0527778 8.84895833,12.9458333 L9.23854167,10.4899306 C9.25,10.4173611 9.19270833,10.3409722 9.11631944,10.3409722 Z M10.6631944,14.0802083 L13.0961806,10.5434028 C13.1152778,10.5243056 13.1152778,10.5052083 13.1152778,10.4784722 C13.1152778,10.4135417 13.0579861,10.3447917 12.9930556,10.3447917 L12.2597222,10.3447917 C12.1947917,10.3447917 12.1260417,10.3829861 12.0878472,10.4402778 L11.0756944,11.9298611 L10.6555556,10.4975694 C10.625,10.4135417 10.5409722,10.3447917 10.4454861,10.3447917 L9.73125,10.3447917 C9.66631944,10.3447917 9.60902778,10.4135417 9.60902778,10.4784722 C9.60902778,10.5243056 10.3538194,12.6479167 10.41875,12.8503472 C10.315625,12.9954861 9.63576389,13.9427083 9.63576389,14.0572917 C9.63576389,14.1260417 9.69305556,14.1795139 9.75798611,14.1795139 L10.4913194,14.1795139 C10.5600694,14.1756944 10.625,14.1375 10.6631944,14.0802083 L10.6631944,14.0802083 Z M16.7475694,10.0048611 C16.7475694,9.20277778 16.1288194,8.93541667 15.4222222,8.93541667 L13.9059028,8.93541667 C13.8027778,8.93541667 13.7072917,9.01180556 13.6958333,9.11493056 L13.0770833,13.0107639 C13.0694444,13.0871528 13.1267361,13.1635417 13.1993056,13.1635417 L13.9822917,13.1635417 C14.0586806,13.1635417 14.1159722,13.10625 14.1350694,13.0413194 L14.3069444,11.9336806 C14.3451389,11.6586806 14.8111111,11.7541667 14.9944444,11.7541667 C16.0791667,11.7541667 16.7475694,11.1048611 16.7475694,10.0048611 Z M19.9635417,10.3409722 L19.2378472,10.3409722 C19.0927083,10.3409722 19.0850694,10.5510417 19.0736111,10.6541667 C18.8635417,10.3295139 18.5388889,10.2722222 18.1684028,10.2722222 C17.2326389,10.2722222 16.5184028,11.0934028 16.5184028,11.9986111 C16.5184028,12.7434028 16.984375,13.2284722 17.7291667,13.2284722 C18.084375,13.2284722 18.5121528,13.0413194 18.7413194,12.7739583 C18.7298611,12.83125 18.703125,12.9534722 18.703125,13.0107639 C18.703125,13.0986111 18.7413194,13.1635417 18.8253472,13.1635417 L19.4861111,13.1635417 C19.5892361,13.1635417 19.6770833,13.0527778 19.6961806,12.9458333 L20.0857639,10.4899306 C20.0972222,10.4173611 20.0399306,10.3409722 19.9635417,10.3409722 L19.9635417,10.3409722 Z M21.7777778,9.06909722 C21.7777778,8.99270833 21.7204861,8.93541667 21.6555556,8.93541667 L20.9489583,8.93541667 C20.8916667,8.93541667 20.834375,8.98125 20.8267361,9.03854167 L20.2079861,13.0107639 L20.1965278,13.0298611 C20.1965278,13.0986111 20.2538194,13.1635417 20.3302083,13.1635417 L20.9604167,13.1635417 C21.0559028,13.1635417 21.1513889,13.0527778 21.1590278,12.9458333 L21.7777778,9.08055556 L21.7777778,9.06909722 L21.7777778,9.06909722 Z M18.3402778,11.0475694 C17.8743056,11.0475694 17.5114583,11.4180556 17.5114583,11.8878472 C17.5114583,12.2583333 17.7788194,12.4607639 18.1302083,12.4607639 C18.5885417,12.4607639 18.9590278,12.109375 18.9590278,11.6395833 C18.9628472,11.2652778 18.6954861,11.0475694 18.3402778,11.0475694 Z"></path>
        </g>
        <g id="cc-amex-brands" transform="translate(408.000000, 0.000000)" fill="#505050" fill-rule="nonzero">
            <path d="M13.418185,8.1841055 C13.418185,7.55804269 12.8799237,7.48169356 12.372202,7.48169356 L10.8795766,7.47024119 L10.8795766,10.1157383 L11.5056394,10.1157383 L11.5056394,9.15755683 L12.1927815,9.15755683 C12.8951935,9.15755683 12.7463127,9.55075482 12.7577651,10.1157383 L13.3914628,10.1157383 L13.3914628,9.60038175 C13.3914628,9.24917578 13.3342009,9.02394586 12.9715426,8.89796981 C13.2540344,8.78344612 13.4220024,8.489502 13.418185,8.1841055 L13.418185,8.1841055 Z M12.2958529,8.61547805 L11.5056394,8.61547805 L11.5056394,8.03140725 L12.3073052,8.03140725 C12.5019955,8.03140725 12.715773,8.06958182 12.715773,8.31389901 C12.715773,8.56585112 12.5134479,8.61547805 12.2958529,8.61547805 L12.2958529,8.61547805 Z M11.6583377,12.0321013 L9.64653826,12.0321013 L8.84487246,12.9024813 L8.06229394,12.0321013 L5.52368558,12.0321013 L5.51986812,14.6775985 L8.01648447,14.6775985 L8.82960264,13.7995836 L9.6083637,14.6775985 L10.8375846,14.6775985 L10.841402,13.7881312 C11.5629013,13.7881312 12.7234079,13.9637342 12.7234079,12.8986639 C12.7234079,12.238244 12.2538608,12.0321013 11.6583377,12.0321013 L11.6583377,12.0321013 Z M7.69581815,14.1202499 L6.14593094,14.1202499 L6.14593094,13.5934409 L7.53166753,13.5934409 L7.53166753,13.0551796 L6.14593094,13.0551796 L6.14593094,12.5779976 L7.73781017,12.5779976 L8.42113483,13.3491237 L7.69581815,14.1202499 Z M10.2077043,14.4332813 L9.24188791,13.3605761 L10.2077043,12.3145931 L10.2077043,14.4332813 Z M11.6507028,13.2498699 L10.841402,13.2498699 L10.841402,12.5779976 L11.6621551,12.5779976 C11.8759327,12.5779976 12.0515357,12.6657991 12.0515357,12.8986639 C12.0515357,13.1429811 11.8759327,13.2498699 11.6507028,13.2498699 L11.6507028,13.2498699 Z M10.4443866,8.03140725 L10.4443866,7.47405865 L8.32569842,7.47405865 L8.32569842,10.1195558 L10.4443866,10.1195558 L10.4443866,9.57365955 L8.95939615,9.57365955 L8.95939615,9.0468506 L10.4023946,9.0468506 L10.4023946,8.50858928 L8.95939615,8.50858928 L8.95939615,8.03140725 L10.4443866,8.03140725 Z M23.0332778,11.5591098 L23.0132778,11.5591098 L23.0332778,11.5591098 Z M15.5674128,12.7459656 C15.5674128,12.1199028 15.0291515,12.0321013 14.5328822,12.0321013 L13.0288044,12.0321013 L13.024987,14.6775985 L13.6586847,14.6775985 L13.6625022,13.7117821 L14.3343745,13.7117821 C14.7542946,13.7117821 14.899358,13.7881312 14.899358,14.238591 L14.8955405,14.6775985 L15.5292382,14.6775985 L15.5330557,14.1507895 C15.5330557,13.8110359 15.4643415,13.5743536 15.1131355,13.4483776 C15.4070796,13.3300364 15.5635953,13.0360923 15.5674128,12.7459656 L15.5674128,12.7459656 Z M14.4527156,13.1735207 L13.6625022,13.1735207 L13.6625022,12.5779976 L14.464168,12.5779976 C14.6588582,12.5779976 14.8726358,12.6161721 14.8726358,12.8604893 C14.8726358,13.1238938 14.6664931,13.1735207 14.4527156,13.1735207 L14.4527156,13.1735207 Z M7.85615131,10.1195558 L7.85615131,7.47405865 L6.8025334,7.47405865 L6.05049453,9.26826306 L5.22210654,7.47405865 L4.18757592,7.47405865 L4.18757592,9.98212736 L3.11487073,7.47405865 L2.17959396,7.47405865 L1.04580947,10.1195558 L1.72913413,10.1195558 L1.97345133,9.53548499 L3.29047371,9.53548499 L3.53479091,10.1195558 L4.8250911,10.1195558 L4.8250911,8.05049453 L5.74128058,10.1195558 L6.29862919,10.1195558 L7.21481867,8.05049453 L7.21481867,10.1195558 L7.85615131,10.1195558 Z M2.19868124,8.9857713 L2.62623634,7.93215339 L3.0652438,8.9857713 L2.19868124,8.9857713 Z M20.4232171,15.0517092 L20.4232171,14.8799237 C20.0109318,15.0937012 20.2743363,15.0517092 14.4412632,15.0517092 C14.4412632,14.0897102 14.4450807,14.1393372 14.4412632,14.0897102 C14.3763665,14.0858928 14.3191046,14.0858928 14.0824223,14.0858928 C14.0824223,14.7692174 14.0786049,14.3454798 14.0786049,15.0517092 L12.5668922,15.0517092 C12.5668922,14.589797 12.5707097,14.4676384 12.5707097,13.937012 C12.1889641,14.1660593 11.7003297,14.1813292 11.2613222,14.1736943 C11.2613222,14.7348603 11.2575048,14.4905431 11.2575048,15.0517092 L9.3907687,15.0517092 C9.19607843,14.8341142 9.28769738,14.933368 8.80288044,14.3874718 C8.68072185,14.5210828 8.31424605,14.9180982 8.18827,15.0517092 L5.05795593,15.0517092 L5.05795593,11.5281971 L8.23026202,11.5281971 C8.42113483,11.7419747 8.33715079,11.6465383 8.82196773,12.1847996 C8.94412632,12.0511886 9.28769738,11.6732605 9.42130835,11.5281971 L11.6354329,11.5281971 C12.0095436,11.5281971 12.322575,11.6007288 12.5630748,11.7419747 L12.5630748,11.5281971 C14.6359535,11.5281971 15.0176991,11.4747527 15.4528891,11.7228874 L15.4528891,11.5281971 L18.4381399,11.5281971 L18.4381399,11.7267048 C18.8733299,11.4633004 19.1863613,11.5281971 20.9156689,11.5281971 L20.9156689,11.7190699 C21.3088669,11.49384 21.5493666,11.5205622 22.9885476,11.5281971 L22.9885476,4.83237897 C22.9885476,3.82075308 22.1677946,3 21.1561687,3 L2.83237897,3 C1.82075308,3 1,3.82075308 1,4.83237897 L1,9.02394586 C1.35884088,8.18792296 1.75203887,7.26791602 1.88183238,6.96633698 L3.39736248,6.96633698 C3.5615131,7.35190005 3.45844178,7.10758286 3.74093354,7.77182023 L3.74093354,6.96633698 L5.49696339,6.96633698 C5.60766962,7.20301926 5.92070102,7.88252646 6.0275898,8.11157383 C6.24900226,7.59239979 6.41315287,7.1992018 6.50858928,6.96633698 L10.4405691,6.96633698 C10.4405691,6.96251952 10.8795766,6.96633698 10.8833941,6.96633698 C12.5516224,6.97397189 12.9295506,6.93579733 13.3418358,7.16866216 L13.3418358,6.96633698 L14.8650009,6.96633698 L14.8650009,7.3213604 C15.1551275,7.08849558 15.5483255,6.96633698 16.0369599,6.96633698 L17.0905778,6.96633698 C17.0905778,6.98542426 17.1631095,6.97778935 17.1783793,6.97778935 L18.4152351,6.97778935 C18.5755683,7.35190005 18.514489,7.20683672 18.7511713,7.76418532 L18.7511713,6.97778935 L20.4041298,6.97778935 C20.5911851,7.28318584 20.3659552,6.90907513 20.8316849,7.68020128 L20.8316849,6.97778935 L22.3548499,6.97778935 L22.3548499,10.489849 L20.7667881,10.489849 C20.5606455,10.146278 20.7133437,10.405865 20.2628839,9.65382613 L20.2628839,10.489849 L18.247267,10.489849 C18.0029499,9.92486552 18.2434496,10.4783967 17.9953149,9.90577824 L17.2699983,9.90577824 C17.1096651,10.2875239 17.1860142,10.104286 17.0256811,10.489849 L16.0026028,10.489849 C15.5330557,10.489849 15.1513101,10.3753254 14.8688183,10.1500954 L14.8688183,10.489849 L12.33021,10.489849 C12.3187576,9.95922263 12.3263925,9.5431199 12.3263925,9.5431199 C12.2576783,9.53166753 12.196599,9.53548499 11.9522818,9.53548499 L11.9522818,10.4936665 L6.77962867,10.4936665 L6.77962867,10.0584765 C6.68419226,10.272254 6.67655735,10.2837064 6.5849384,10.4936665 L5.45878883,10.4936665 C5.30609058,10.1539129 5.3480826,10.2493493 5.26409856,10.0584765 L5.26409856,10.4936665 L3.24466424,10.4936665 C3.08433108,10.1081034 3.1606802,10.2913413 3.00034704,9.9095957 L2.26739545,9.9095957 C2.10706229,10.2913413 2.18341142,10.1081034 2.02307826,10.4936665 L1.00763491,10.4936665 L1.00763491,18.2698247 C1.00763491,19.2814506 1.82838799,20.1022037 2.84001388,20.1022037 L21.167621,20.1022037 C22.1792469,20.1022037 23,19.2814506 23,18.2698247 L23,14.8188444 C22.5151831,15.1356932 21.7516918,15.0517092 20.4232171,15.0517092 Z M21.8089537,12.5894499 L22.958008,12.5894499 L22.958008,12.0321013 L21.7020649,12.0321013 C21.2134305,12.0321013 20.7935103,12.2840534 20.7935103,12.8223148 C20.7935103,14.0820753 22.4235641,13.3109492 22.4235641,13.8682978 C22.4235641,14.062988 22.2594135,14.112615 22.1028978,14.112615 L20.8813118,14.112615 L20.8774944,14.6775985 L22.0990803,14.6775985 C22.4197467,14.6775985 22.7709526,14.6088843 22.958008,14.3378449 L22.958008,13.3529412 C22.5571751,12.8261322 21.4577477,13.3033142 21.4577477,12.8375846 C21.4577477,12.6161721 21.6333507,12.5894499 21.8089537,12.5894499 L21.8089537,12.5894499 Z M19.6330036,14.1087975 L18.4037828,14.1087975 L18.3999653,14.673781 L19.6291862,14.673781 C20.1941697,14.673781 20.6293597,14.4600035 20.6293597,13.8339407 C20.6293597,12.5665452 18.991671,13.4063856 18.991671,12.8299497 C18.991671,12.6161721 19.1787264,12.5856325 19.342877,12.5856325 L20.5033837,12.5856325 L20.5033837,12.0282839 L19.2359882,12.0282839 C18.7473538,12.0282839 18.338886,12.280236 18.338886,12.8184973 C18.338886,14.0782579 19.9689398,13.2956793 19.9689398,13.8644803 C19.9651223,14.0706229 19.7895193,14.1087975 19.6330036,14.1087975 L19.6330036,14.1087975 Z M18.0220371,12.5779976 L18.0220371,12.0321013 L15.9148013,12.0321013 L15.9109839,14.6775985 L18.0182197,14.6775985 L18.0220371,14.1317022 L16.548499,14.1202499 L16.548499,13.5934409 L17.9953149,13.5934409 L17.9953149,13.0551796 L16.5523165,13.0551796 L16.5523165,12.5779976 L18.0220371,12.5779976 Z M15.8728093,8.45132743 C15.8613569,8.45896235 15.8193649,8.53531147 15.8193649,8.7414541 C15.8193649,8.97050147 15.853722,9.03539823 15.8613569,9.04303314 C15.8689918,9.0468506 15.903349,9.06212042 15.9911504,9.06212042 L16.2698247,8.41697033 C16.2278327,8.41697033 16.1896582,8.41315287 16.1514836,8.41315287 C15.9377061,8.41315287 15.8842617,8.43987507 15.8728093,8.45132743 Z M16.6855744,8.08140725 L16.6755744,8.08140725 L16.6855744,8.08140725 Z M16.0331425,7.47024119 C15.1360403,7.47024119 14.7352074,7.92833594 14.7352074,8.81780323 C14.7352074,9.6652785 15.1245879,10.1157383 15.9949679,10.1157383 L16.7279195,10.1157383 L16.9722367,9.53166753 L18.2816242,9.53166753 L18.5335763,10.1157383 L19.820059,10.1157383 L19.820059,8.13447857 L21.0111053,10.1157383 L21.912025,10.1157383 L21.912025,7.48169356 L21.2668749,7.48169356 L21.2668749,9.31788999 L20.1559951,7.48169356 L19.1901787,7.48169356 L19.1901787,9.97830991 L18.1251085,7.48169356 L17.1783793,7.48169356 L16.2812771,9.56220718 L15.9987854,9.56220718 C15.4910637,9.56220718 15.3841749,9.25299323 15.3841749,8.8025334 C15.3841749,7.89397883 15.9835155,8.03904217 16.6477529,8.05049453 L16.6477529,7.47024119 L16.0331425,7.47024119 Z M17.6402915,7.93215339 L18.0678466,8.9857713 L17.1974666,8.9857713 L17.6402915,7.93215339 Z M13.7808433,7.47405865 L13.7808433,10.1195558 L14.4259934,10.1195558 L14.4259934,7.47405865 L13.7808433,7.47405865 Z"></path>
        </g>
        <g id="cc-discover-brands" transform="translate(432.000000, 0.000000)" fill="#505050" fill-rule="nonzero">
            <path d="M20.8763889,9.26770833 C20.8763889,8.96597222 20.6663194,8.80555556 20.2805556,8.80555556 L20.0934028,8.80555556 L20.0934028,9.75659722 L20.2729167,9.75659722 C20.6663194,9.75659722 20.8763889,9.58854167 20.8763889,9.26770833 Z M21.1666667,3 L2.83333333,3 C1.82118056,3 1,3.82118056 1,4.83333333 L1,18.2777778 C1,19.2899306 1.82118056,20.1111111 2.83333333,20.1111111 L21.1666667,20.1111111 C22.1788194,20.1111111 23,19.2899306 23,18.2777778 L23,4.83333333 C23,3.82118056 22.1788194,3 21.1666667,3 Z M19.4822917,8.30520833 C20.3454861,8.30520833 21.5027778,8.14861111 21.5027778,9.23715278 C21.5027778,9.71840278 21.2506944,10.0277778 20.7885417,10.1232639 L21.7739583,11.4371528 L21.0253472,11.4371528 L20.1774306,10.184375 L20.0934028,10.184375 L20.0934028,11.4371528 L19.4822917,11.4371528 L19.4822917,8.30520833 Z M17.3472222,8.30902778 L19.0774306,8.30902778 L19.0774306,8.84375 L17.9583333,8.84375 L17.9583333,9.53888889 L19.0392361,9.53888889 L19.0392361,10.0659722 L17.9583333,10.0659722 L17.9583333,10.9138889 L19.0774306,10.9138889 L19.0774306,11.4409722 L17.3472222,11.4409722 L17.3472222,8.30902778 Z M14.7232639,8.30902778 L15.5597222,10.4173611 L16.4076389,8.30902778 L17.0760417,8.30902778 L15.7201389,11.525 L15.3916667,11.525 L14.0548611,8.30902778 L14.7232639,8.30902778 Z M12.5881944,8.19444444 C13.5315972,8.19444444 14.2916667,8.95833333 14.2916667,9.89791667 C14.2916667,10.8413194 13.5277778,11.6013889 12.5881944,11.6013889 C11.6447917,11.6013889 10.8847222,10.8375 10.8847222,9.89791667 C10.8847222,8.95451389 11.6486111,8.19444444 12.5881944,8.19444444 Z M10.7052083,8.42743056 L10.7052083,9.153125 C9.9375,8.38541667 8.91770833,8.97361111 8.91770833,9.87881944 C8.91770833,10.8336806 9.96805556,11.3493056 10.7052083,10.6121528 L10.7052083,11.3378472 C9.57083333,11.8840278 8.2875,11.1201389 8.2875,9.87881944 C8.2875,8.68715278 9.55173611,7.85451389 10.7052083,8.42743056 L10.7052083,8.42743056 Z M6.99270833,10.9597222 C7.428125,10.9597222 7.84826389,10.3753472 6.86666667,10.0277778 C6.29375,9.81770833 6.09513889,9.59236111 6.09513889,9.16076389 C6.09513889,8.27465278 7.26388889,7.96145833 7.99340278,8.61458333 L7.67256944,9.02708333 C7.27534722,8.58402778 6.72152778,8.79027778 6.72152778,9.12256944 C6.72152778,9.290625 6.82465278,9.38611111 7.19131944,9.51597222 C7.88645833,9.76805556 8.09270833,9.99340278 8.09270833,10.49375 C8.09270833,11.6204861 6.61076389,11.9222222 5.93090278,10.9253472 L6.32430556,10.5472222 C6.465625,10.8184028 6.70243056,10.9597222 6.99270833,10.9597222 L6.99270833,10.9597222 Z M3.11597222,11.4409722 L2.22222222,11.4409722 L2.22222222,8.30902778 L3.11597222,8.30902778 C4.11284722,8.30902778 4.80034722,8.95833333 4.80034722,9.87881944 C4.80034722,10.5854167 4.29618056,11.4409722 3.11597222,11.4409722 Z M5.69409722,11.4409722 L5.08298611,11.4409722 L5.08298611,8.30902778 L5.69409722,8.30902778 L5.69409722,11.4409722 Z M21.7777778,18.3159722 C21.7777778,18.6291667 21.5180556,18.8888889 21.2048611,18.8888889 L5.88888889,18.8888889 C13.1305556,17.5291667 20.5059028,13.5722222 21.7777778,12.7777778 L21.7777778,18.3159722 Z M3.83020833,9.09583333 C3.63159722,8.90868056 3.38715278,8.84375 2.99375,8.84375 L2.83333333,8.84375 L2.83333333,10.9138889 L2.99375,10.9138889 C3.38715278,10.9138889 3.64305556,10.8375 3.83020833,10.6694444 C4.04791667,10.4708333 4.17013889,10.1805556 4.17013889,9.87881944 C4.17013889,9.57708333 4.04791667,9.28680556 3.83020833,9.09583333 Z"></path>
        </g>
        <g id="cc-mastercard-brands" transform="translate(456.000000, 0.000000)" fill="#505050" fill-rule="nonzero">
            <path d="M19.4440972,17.4107639 C19.4440972,17.6704861 19.2684028,17.8576389 19.0163194,17.8576389 C18.7565972,17.8576389 18.5885417,17.6590278 18.5885417,17.4107639 C18.5885417,17.1625 18.7565972,16.9638889 19.0163194,16.9638889 C19.2684028,16.9638889 19.4440972,17.1625 19.4440972,17.4107639 Z M7.57326389,16.9638889 C7.30208333,16.9638889 7.14548611,17.1625 7.14548611,17.4107639 C7.14548611,17.6590278 7.30208333,17.8576389 7.57326389,17.8576389 C7.82152778,17.8576389 7.98958333,17.6704861 7.98958333,17.4107639 C7.98576389,17.1625 7.82152778,16.9638889 7.57326389,16.9638889 Z M12.0611111,16.9524306 C11.8548611,16.9524306 11.7288194,17.0861111 11.6982639,17.2847222 L12.4277778,17.2847222 C12.3934028,17.0670139 12.2597222,16.9524306 12.0611111,16.9524306 Z M16.1784722,16.9638889 C15.91875,16.9638889 15.7621528,17.1625 15.7621528,17.4107639 C15.7621528,17.6590278 15.91875,17.8576389 16.1784722,17.8576389 C16.4381944,17.8576389 16.60625,17.6704861 16.60625,17.4107639 C16.60625,17.1625 16.4381944,16.9638889 16.1784722,16.9638889 Z M20.2232639,17.9607639 C20.2232639,17.9722222 20.2347222,17.9798611 20.2347222,18.0027778 C20.2347222,18.0142361 20.2232639,18.021875 20.2232639,18.0447917 C20.2118056,18.05625 20.2118056,18.0638889 20.2041667,18.0753472 C20.1927083,18.0868056 20.1850694,18.0944444 20.1621528,18.0944444 C20.1506944,18.1059028 20.1430556,18.1059028 20.1201389,18.1059028 C20.1086806,18.1059028 20.1010417,18.1059028 20.078125,18.0944444 C20.0666667,18.0944444 20.0590278,18.0829861 20.0475694,18.0753472 C20.0361111,18.0638889 20.0284722,18.05625 20.0284722,18.0447917 C20.0170139,18.0256944 20.0170139,18.0142361 20.0170139,18.0027778 C20.0170139,17.9836806 20.0170139,17.9722222 20.0284722,17.9607639 C20.0284722,17.9416667 20.0399306,17.9302083 20.0475694,17.91875 C20.0590278,17.9072917 20.0666667,17.9072917 20.078125,17.8996528 C20.0972222,17.8881944 20.1086806,17.8881944 20.1201389,17.8881944 C20.1392361,17.8881944 20.1506944,17.8881944 20.1621528,17.8996528 C20.18125,17.9111111 20.1927083,17.9111111 20.2041667,17.91875 C20.215625,17.9263889 20.2118056,17.9416667 20.2232639,17.9607639 Z M20.1392361,18.0142361 C20.1583333,18.0142361 20.1583333,18.0027778 20.1697917,18.0027778 C20.18125,17.9913194 20.18125,17.9836806 20.18125,17.9722222 C20.18125,17.9607639 20.18125,17.953125 20.1697917,17.9416667 C20.1583333,17.9416667 20.1506944,17.9302083 20.1277778,17.9302083 L20.0666667,17.9302083 L20.0666667,18.0638889 L20.0972222,18.0638889 L20.0972222,18.0104167 L20.1086806,18.0104167 L20.1506944,18.0638889 L20.18125,18.0638889 L20.1392361,18.0142361 L20.1392361,18.0142361 Z M23,4.83333333 L23,18.2777778 C23,19.2899306 22.1788194,20.1111111 21.1666667,20.1111111 L2.83333333,20.1111111 C1.82118056,20.1111111 1,19.2899306 1,18.2777778 L1,4.83333333 C1,3.82118056 1.82118056,3 2.83333333,3 L21.1666667,3 C22.1788194,3 23,3.82118056 23,4.83333333 Z M3.44444444,10.1652778 C3.44444444,13.0871528 5.81631944,15.4552083 8.734375,15.4552083 C9.77326389,15.4552083 10.7930556,15.1420139 11.65625,14.5729167 C8.871875,12.3079861 8.89097222,8.03402778 11.65625,5.76909722 C10.7930556,5.19618056 9.77326389,4.88680095 8.734375,4.88680095 C5.81631944,4.88298611 3.44444444,7.25486111 3.44444444,10.1652778 Z M12,14.3208333 C14.6927083,12.2201389 14.68125,8.12569444 12,6.01354167 C9.31875,8.12569444 9.30729167,12.2239583 12,14.3208333 Z M6.56493056,17.2350694 C6.56493056,16.9027778 6.34722222,16.6850694 6.00347222,16.6736111 C5.82777778,16.6736111 5.640625,16.7270833 5.51458333,16.921875 C5.42291667,16.7652778 5.26631944,16.6736111 5.04861111,16.6736111 C4.90347222,16.6736111 4.75833333,16.7270833 4.64375,16.8798611 L4.64375,16.7118056 L4.33055556,16.7118056 L4.33055556,18.1135417 L4.64375,18.1135417 C4.64375,17.3916667 4.54826389,16.9600694 4.9875,16.9600694 C5.37708333,16.9600694 5.30069444,17.3496528 5.30069444,18.1135417 L5.60243056,18.1135417 C5.60243056,17.4145833 5.50694444,16.9600694 5.94618056,16.9600694 C6.33576389,16.9600694 6.259375,17.3420139 6.259375,18.1135417 L6.57256944,18.1135417 L6.57256944,17.2350694 L6.56493056,17.2350694 Z M8.27986111,16.7118056 L7.978125,16.7118056 L7.978125,16.8798611 C7.875,16.7538194 7.72986111,16.6736111 7.53125,16.6736111 C7.13784722,16.6736111 6.83611111,16.9868056 6.83611111,17.4107639 C6.83611111,17.8385417 7.13784722,18.1479167 7.53125,18.1479167 C7.72986111,18.1479167 7.875,18.0753472 7.978125,17.9416667 L7.978125,18.1173611 L8.27986111,18.1173611 L8.27986111,16.7118056 Z M9.82673611,17.6895833 C9.82673611,17.1166667 8.95208333,17.3763889 8.95208333,17.1090278 C8.95208333,16.8913194 9.40659722,16.9256944 9.65868056,17.0670139 L9.78472222,16.81875 C9.42569444,16.5857639 8.63125,16.5895833 8.63125,17.1319444 C8.63125,17.678125 9.50590278,17.4489583 9.50590278,17.7048611 C9.50590278,17.9454861 8.99027778,17.9263889 8.71527778,17.7354167 L8.58159722,17.9760417 C9.009375,18.2663194 9.82673611,18.2052083 9.82673611,17.6895833 L9.82673611,17.6895833 Z M11.1788194,18.0447917 L11.0947917,17.7850694 C10.9496528,17.8652778 10.6288194,17.953125 10.6288194,17.6284722 L10.6288194,16.9944444 L11.1291667,16.9944444 L11.1291667,16.7118056 L10.6288194,16.7118056 L10.6288194,16.2840278 L10.315625,16.2840278 L10.315625,16.7118056 L10.0253472,16.7118056 L10.0253472,16.990625 L10.315625,16.990625 L10.315625,17.6284722 C10.315625,18.3006944 10.9763889,18.1784722 11.1788194,18.0447917 L11.1788194,18.0447917 Z M11.6868056,17.5329861 L12.7371528,17.5329861 C12.7371528,16.9142361 12.4545139,16.6697917 12.0725694,16.6697917 C11.6677083,16.6697917 11.3774306,16.9715278 11.3774306,17.4069444 C11.3774306,18.1899306 12.240625,18.3197917 12.6684028,17.9493056 L12.5232639,17.7201389 C12.2253472,17.9645833 11.7746528,17.9416667 11.6868056,17.5329861 L11.6868056,17.5329861 Z M13.9440972,16.7118056 C13.7684028,16.6354167 13.5010417,16.6430556 13.3635417,16.8798611 L13.3635417,16.7118056 L13.0503472,16.7118056 L13.0503472,18.1135417 L13.3635417,18.1135417 L13.3635417,17.3229167 C13.3635417,16.8798611 13.7263889,16.9371528 13.8524306,17.0020833 L13.9440972,16.7118056 L13.9440972,16.7118056 Z M14.3489583,17.4107639 C14.3489583,16.9753472 14.7920139,16.8340278 15.1395833,17.0899306 L15.2847222,16.8416667 C14.8416667,16.4940972 14.0357639,16.6850694 14.0357639,17.4145833 C14.0357639,18.1708333 14.8913194,18.3236111 15.2847222,17.9875 L15.1395833,17.7392361 C14.7881944,17.9875 14.3489583,17.8385417 14.3489583,17.4107639 Z M16.8965278,16.7118056 L16.5833333,16.7118056 L16.5833333,16.8798611 C16.2663194,16.4597222 15.4413194,16.6965278 15.4413194,17.4107639 C15.4413194,18.1440972 16.296875,18.3541667 16.5833333,17.9416667 L16.5833333,18.1173611 L16.8965278,18.1173611 L16.8965278,16.7118056 L16.8965278,16.7118056 Z M18.1836806,16.7118056 C18.0920139,16.6659722 17.7635417,16.6010417 17.603125,16.8798611 L17.603125,16.7118056 L17.3013889,16.7118056 L17.3013889,18.1135417 L17.603125,18.1135417 L17.603125,17.3229167 C17.603125,16.9027778 17.946875,16.9295139 18.0920139,17.0020833 L18.1836806,16.7118056 L18.1836806,16.7118056 Z M19.7229167,16.1427083 L19.4211806,16.1427083 L19.4211806,16.8798611 C19.1079861,16.4635417 18.2791667,16.6850694 18.2791667,17.4107639 C18.2791667,18.1517361 19.1385417,18.3503472 19.4211806,17.9416667 L19.4211806,18.1173611 L19.7229167,18.1173611 L19.7229167,16.1427083 Z M20.0131944,13.2743056 L20.0131944,13.45 L20.04375,13.45 L20.04375,13.2743056 L20.1163194,13.2743056 L20.1163194,13.24375 L19.940625,13.24375 L19.940625,13.2743056 L20.0131944,13.2743056 L20.0131944,13.2743056 Z M20.2652778,18.0027778 C20.2652778,17.9836806 20.2652778,17.9607639 20.2538194,17.9416667 C20.2423611,17.9302083 20.2347222,17.9111111 20.2232639,17.8996528 C20.2118056,17.8881944 20.1927083,17.8805556 20.18125,17.8690972 C20.1621528,17.8690972 20.1392361,17.8576389 20.1201389,17.8576389 C20.1086806,17.8576389 20.0895833,17.8690972 20.0666667,17.8690972 C20.0475694,17.8805556 20.0361111,17.8881944 20.0246528,17.8996528 C20.0055556,17.9111111 19.9940972,17.9302083 19.9940972,17.9416667 C19.9826389,17.9607639 19.9826389,17.9836806 19.9826389,18.0027778 C19.9826389,18.0142361 19.9826389,18.0333333 19.9940972,18.05625 C19.9940972,18.0677083 20.0055556,18.0868056 20.0246528,18.0982639 C20.0361111,18.1097222 20.04375,18.1173611 20.0666667,18.1288194 C20.0857639,18.1402778 20.1086806,18.1402778 20.1201389,18.1402778 C20.1392361,18.1402778 20.1621528,18.1402778 20.18125,18.1288194 C20.1927083,18.1173611 20.2118056,18.1097222 20.2232639,18.0982639 C20.2347222,18.0868056 20.2423611,18.0677083 20.2538194,18.05625 C20.2652778,18.0333333 20.2652778,18.0142361 20.2652778,18.0027778 Z M20.3875,13.2399306 L20.3340278,13.2399306 L20.2729167,13.3736111 L20.2118056,13.2399306 L20.1583333,13.2399306 L20.1583333,13.4461806 L20.1888889,13.4461806 L20.1888889,13.2895833 L20.25,13.4232639 L20.2920139,13.4232639 L20.3454861,13.2895833 L20.3454861,13.4461806 L20.3875,13.4461806 L20.3875,13.2399306 L20.3875,13.2399306 Z M20.5555556,10.1652778 C20.5555556,7.25486111 18.1836806,4.88298611 15.265625,4.88298611 C14.2267361,4.88298611 13.2069444,5.19618056 12.34375,5.76527778 C15.0975694,8.03020833 15.1395833,12.315625 12.34375,14.5690972 C13.2069444,15.1420139 14.234375,15.4513935 15.265625,15.4513935 C18.1836806,15.4552083 20.5555556,13.0871528 20.5555556,10.1652778 Z"></path>
        </g>
        <g id="cc-visa-brands" transform="translate(480.000000, 0.000000)" fill="#505050" fill-rule="nonzero">
            <path d="M18.9552083,10.6121528 C18.9552083,10.6121528 19.2454861,12.0329861 19.3104167,12.3309028 L18.0347222,12.3309028 C18.1607639,11.9909722 18.6458333,10.6694444 18.6458333,10.6694444 C18.6381944,10.6809028 18.771875,10.321875 18.8482639,10.1003472 L18.9552083,10.6121528 Z M23,4.83333333 L23,18.2777778 C23,19.2899306 22.1788194,20.1111111 21.1666667,20.1111111 L2.83333333,20.1111111 C1.82118056,20.1111111 1,19.2899306 1,18.2777778 L1,4.83333333 C1,3.82118056 1.82118056,3 2.83333333,3 L21.1666667,3 C22.1788194,3 23,3.82118056 23,4.83333333 Z M6.82465278,14.4277778 L9.23854167,8.5 L7.61527778,8.5 L6.11423611,12.5486111 L5.95,11.7274306 L5.41527778,9.00034722 C5.32743056,8.62222222 5.05625,8.51527778 4.72013889,8.5 L2.24895833,8.5 L2.22222222,8.61840278 C2.82569444,8.77118056 3.36423611,8.99270833 3.83402778,9.27152778 L5.20138889,14.4277778 L6.82465278,14.4277778 Z M10.4302083,14.4354167 L11.3927083,8.5 L9.85729167,8.5 L8.89861111,14.4354167 L10.4302083,14.4354167 L10.4302083,14.4354167 Z M15.7736111,12.4951389 C15.78125,11.8190972 15.36875,11.3034722 14.4864583,10.8795139 C13.9479167,10.6083333 13.6194444,10.425 13.6194444,10.1461806 C13.6270833,9.89409722 13.8982639,9.634375 14.5017361,9.634375 C15.0020833,9.62291667 15.36875,9.74131944 15.64375,9.85972222 L15.78125,9.92465278 L15.9913194,8.64131944 C15.6895833,8.52291667 15.2083333,8.38923611 14.6163194,8.38923611 C13.1,8.38923611 12.034375,9.19895833 12.0267361,10.3524306 C12.0152778,11.2041667 12.790625,11.6777778 13.3711806,11.9642361 C13.9631944,12.2545139 14.165625,12.4454861 14.165625,12.7013889 C14.1579861,13.0986111 13.684375,13.2819444 13.2451389,13.2819444 C12.6340278,13.2819444 12.3055556,13.1864583 11.8052083,12.9649306 L11.6027778,12.8694444 L11.3888889,14.2024306 C11.7479167,14.3666667 12.4125,14.5118056 13.1,14.5194581 C14.7118056,14.5232639 15.7621528,13.725 15.7736111,12.4951389 Z M21.1666667,14.4354167 L19.9291667,8.5 L18.7413194,8.5 C18.3746528,8.5 18.0958333,8.60694444 17.9392361,8.99270833 L15.6590278,14.4354167 L17.2708333,14.4354167 C17.2708333,14.4354167 17.534375,13.7020833 17.5916667,13.5454861 L19.5625,13.5454861 C19.6083333,13.7555556 19.7458333,14.4354167 19.7458333,14.4354167 L21.1666667,14.4354167 Z"></path>
        </g>
        <g id="chevron-down" transform="translate(504.000000, 0.000000)" fill="#505050" fill-rule="nonzero">
            <polygon points="7.41 8 12 12.59 16.59 8 18 9.42 12 15.42 6 9.42"></polygon>
        </g>
        <g id="chevron-up" transform="translate(528.000000, 0.000000)" fill="#505050" fill-rule="nonzero">
            <polygon points="7.41 15.41 12 10.83 16.59 15.41 18 14 12 8 6 14"></polygon>
        </g>
    </g>
</svg>